DBRep_DrawableShape

CASCADE Topology V1, (c) Matra-Datavision
Locations 6
1
              1               0               0               0 
              0               1               0               0 
              0               0               1               0 
1
              1               0               0 553.495270880246 
              0               1               0 506.599974506189 
              0               0               1             545 
2  1 1 2 1 0
1
             -1              -0               0 166.000026367467 
              0              -1               0 -2.40779618465581e-15 
              0               0               1               0 
1
              1               0               0               0 
              0               1               0               0 
              0               0               1             271 
2  4 1 5 1 0
Curve2ds 0
Curves 8
1 332.00005273493349 0.099999999999975081 0 0 0 1 
1 5.1159076974727213e-13 0.099999999999975081 0 0 0 1 
1 -166.00002636746649 -0.099999999999977496 0 1 0 0 
1 5.1159076974727213e-13 -0.099999999999979911 0 0 0 1 
1 166.00002636746649 -0.099999999999977496 0 0 1 0 
1 332.00005273493349 -0.099999999999979911 0 0 0 1 
1 166.00002636746649 0.099999999999977496 0 -1 0 0 
1 -166.00002636746649 0.099999999999977496 0 0 -1 0 
Polygon3D 0
PolygonOnTriangulations 0
Surfaces 5
1 332.00005273493349 0.099999999999975081 0 0 -1 0 -1 0 0 -0 -0 -1 
1 5.1159076974727213e-13 0.099999999999975081 0 1 0 -0 0 -1 0 0 -0 -1 
1 5.1159076974727213e-13 -0.099999999999979911 0 0 1 0 1 0 0 0 0 -1 
1 332.00005273493349 -0.099999999999979911 0 -1 0 0 0 1 0 0 0 -1 
1 166.000026367467 -2.4147350785597155e-15 0 0 0 1 1 0 -0 -0 1 0 
Triangulations 0

TShapes 24
Ve
0.00099
-166.000026367466 -0.0999999999999775 0
0 0

0101101
*
Ed
 0.00099 1 1 0
1  1 0 0 271
0

0101000
+24 4 -24 6 *
Ve
0.00099
166.000026367466 -0.0999999999999775 0
0 0

0101101
*
Ed
 0.00099 1 1 0
1  2 0 0 271
0

0101000
+22 4 -22 6 *
Ed
 0.00099 1 1 0
1  3 0 0 332.000052734933
0

0101000
+24 0 -22 0 *
Wi

0101100
+23 0 -21 0 -20 4 +20 6 *
Fa
0  0.00099 1 0

0111000
+19 0 *
Ve
0.00099
166.000026367466 0.0999999999999775 0
0 0

0101101
*
Ed
 0.00099 1 1 0
1  4 0 0 271
0

0101000
+17 4 -17 6 *
Ed
 0.00099 1 1 0
1  5 0 0 0.199999999999955
0

0101000
+22 0 -17 0 *
Wi

0101100
+21 0 -16 0 -15 4 +15 6 *
Fa
0  0.00099 2 0

0111000
+14 0 *
Ve
0.00099
-166.000026367466 0.0999999999999775 0
0 0

0101101
*
Ed
 0.00099 1 1 0
1  6 0 0 271
0

0101000
+12 4 -12 6 *
Ed
 0.00099 1 1 0
1  7 0 0 332.000052734933
0

0101000
+17 0 -12 0 *
Wi

0101100
+16 0 -11 0 -10 4 +10 6 *
Fa
0  0.00099 3 0

0111000
+9 0 *
Ed
 0.00099 1 1 0
1  8 0 0 0.199999999999955
0

0101000
+12 0 -24 0 *
Wi

0101100
+11 0 -23 0 -7 4 +7 6 *
Fa
0  0.00099 4 0

0111000
+6 0 *
Wi

0101100
+20 0 +15 0 +10 0 +7 0 *
Fa
0  0.00099 5 0

0111000
+4 4 *
Sh

0101100
+18 0 +13 0 +8 0 +5 0 +3 0 -3 5 *
So

1100000
-2 0 *

+1 3 