DBRep_DrawableShape

CASCADE Topology V1, (c) Matra-Datavision
Locations 4
1
              1               0               0  568.4958133435 
              0               1               0 585.249960799941 
              0               0               1               2 
1
              1               0               0               0 
              0               1               0               0 
              0               0               1             545 
2  1 1 2 1 0
1
              1               0               0               0 
              0               1               0               0 
              0               0               1             269 
Curve2ds 0
Curves 16
1 -192.00052662902701 -78.749980280536107 0 0 0 1 
1 -20.0005661396292 -78.749980280536107 0 0 0 1 
1 -192.00052662902701 -78.749980280536107 0 1 0 0 
1 194.99926950214399 -78.750044920761994 0 0 0 1 
1 -20.0005661396292 -78.749980280536107 0 0.99999999999995481 -3.0065244326182069e-07 0 
1 194.99930016868299 23.249918773632999 0 0 0 1 
1 194.99926950214399 -78.750044920761994 0 3.0065245019171429e-07 0.99999999999995481 0 
1 80.0041898357143 23.249953347193902 0 0 0 1 
1 194.99930016868299 23.249918773632999 0 -0.99999999999995481 3.0065244342106834e-07 0 
1 -33.000603426871699 23.249987322361299 0 0 0 1 
1 80.0041898357143 23.249953347193902 0 -0.9999999999999547 3.0065244505799011e-07 0 
1 -33.000585387706302 83.250049117469501 0 0 0 1 
1 -33.000603426871699 23.249987322361299 0 3.0065244696913027e-07 0.99999999999995481 0 
1 -192.00047792330699 83.250096921176294 0 0 0 1 
1 -33.000585387706302 83.250049117469501 0 -0.99999999999995481 3.0065244717968694e-07 0 
1 -192.00047792330699 83.250096921176294 0 -3.006524494322807e-07 -0.99999999999995492 0 
Polygon3D 0
PolygonOnTriangulations 0
Surfaces 9
1 -192.00052662902701 -78.749980280536107 0 0 1 0 1 0 0 0 0 -1 
1 -20.0005661396292 -78.749980280536107 0 3.0065244326182069e-07 0.99999999999995481 -0 0.99999999999995481 -3.0065244326182069e-07 0 0 -0 -1 
1 194.99926950214399 -78.750044920761994 0 -0.99999999999995481 3.0065245019171429e-07 0 3.0065245019171429e-07 0.99999999999995481 0 0 0 -1 
1 194.99930016868299 23.249918773632999 0 -3.0065244342106834e-07 -0.99999999999995481 0 -0.99999999999995481 3.0065244342106834e-07 0 -0 0 -1 
1 80.0041898357143 23.249953347193902 0 -3.0065244505799016e-07 -0.99999999999995481 0 -0.99999999999995481 3.0065244505799016e-07 0 -0 0 -1 
1 -33.000603426871699 23.249987322361299 0 -0.99999999999995481 3.0065244696913027e-07 0 3.0065244696913027e-07 0.99999999999995481 0 0 0 -1 
1 -33.000585387706302 83.250049117469501 0 -3.0065244717968694e-07 -0.99999999999995481 0 -0.99999999999995481 3.0065244717968694e-07 0 -0 0 -1 
1 -192.00047792330699 83.250096921176294 0 0.99999999999995492 -3.006524494322807e-07 0 -3.006524494322807e-07 -0.99999999999995492 0 0 -0 -1 
1 1.4210854715202004e-14 -2.4868995751603507e-14 0 0 0 1 1 0 -0 -0 1 0 
Triangulations 0

TShapes 44
Ve
0.00099
-192.000526629027 -78.7499802805361 0
0 0

0101101
*
Ed
 0.00099 1 1 0
1  1 0 0 269
0

0101000
+44 0 -44 4 *
Ve
0.00099
-20.0005661396292 -78.7499802805361 0
0 0

0101101
*
Ed
 0.00099 1 1 0
1  2 0 0 269
4 C2 1 0 2 0
0

0101000
+42 0 -42 4 *
Ed
 0.00099 1 1 0
1  3 0 0 171.999960489398
0

0101000
+44 0 -42 0 *
Wi

0101100
+43 0 -41 0 -40 0 +40 4 *
Fa
0  0.00099 1 0

0101000
+39 0 *
Ve
0.00099
194.999269502144 -78.750044920762 0
0 0

0101101
*
Ed
 0.00099 1 1 0
1  4 0 0 269
0

0101000
+37 0 -37 4 *
Ed
 0.00099 1 1 0
1  5 0 0 214.999835641783
0

0101000
+42 0 -37 0 *
Wi

0101100
+41 0 -36 0 -35 0 +35 4 *
Fa
0  0.00099 2 0

0101000
+34 0 *
Ve
0.00099
194.999300168683 23.249918773633 0
0 0

0101101
*
Ed
 0.00099 1 1 0
1  6 0 0 269
0

0101000
+32 0 -32 4 *
Ed
 0.00099 1 1 0
1  7 0 0 101.9999636944
0

0101000
+37 0 -32 0 *
Wi

0101100
+36 0 -31 0 -30 0 +30 4 *
Fa
0  0.00099 3 0

0101000
+29 0 *
Ve
0.00099
80.0041898357143 23.2499533471939 0
0 0

0101101
*
Ed
 0.00099 1 1 0
1  8 0 0 269
4 C2 4 0 5 0
0

0101000
+27 0 -27 4 *
Ed
 0.00099 1 1 0
1  9 0 0 114.995110332974
0

0101000
+32 0 -27 0 *
Wi

0101100
+31 0 -26 0 -25 0 +25 4 *
Fa
0  0.00099 4 0

0101000
+24 0 *
Ve
0.00099
-33.0006034268717 23.2499873223613 0
0 0

0101101
*
Ed
 0.00099 1 1 0
1  10 0 0 269
0

0101000
+22 0 -22 4 *
Ed
 0.00099 1 1 0
1  11 0 0 113.004793262591
0

0101000
+27 0 -22 0 *
Wi

0101100
+26 0 -21 0 -20 0 +20 4 *
Fa
0  0.00099 5 0

0101000
+19 0 *
Ve
0.00099
-33.0005853877063 83.2500491174695 0
0 0

0101101
*
Ed
 0.00099 1 1 0
1  12 0 0 269
0

0101000
+17 0 -17 4 *
Ed
 0.00099 1 1 0
1  13 0 0 60.0000617951109
0

0101000
+22 0 -17 0 *
Wi

0101100
+21 0 -16 0 -15 0 +15 4 *
Fa
0  0.00099 6 0

0101000
+14 0 *
Ve
0.00099
-192.000477923307 83.2500969211763 0
0 0

0101101
*
Ed
 0.00099 1 1 0
1  14 0 0 269
0

0101000
+12 0 -12 4 *
Ed
 0.00099 1 1 0
1  15 0 0 158.999892535608
0

0101000
+17 0 -12 0 *
Wi

0101100
+16 0 -11 0 -10 0 +10 4 *
Fa
0  0.00099 7 0

0101000
+9 0 *
Ed
 0.00099 1 1 0
1  16 0 0 162.00007720172
0

0101000
+12 0 -44 0 *
Wi

0101100
+11 0 -43 0 -7 0 +7 4 *
Fa
0  0.00099 8 0

0101000
+6 0 *
Wi

0101100
+40 0 +35 0 +30 0 +25 0 +20 0 +15 0 +10 0 +7 0 *
Fa
0  0.00099 9 0

0111000
+4 0 *
Sh

0101100
+38 0 +33 0 +28 0 +23 0 +18 0 +13 0 +8 0 +5 0 +3 0 -3 4 
*
So

1100000
-2 0 *

+1 3 