DBRep_DrawableShape

CASCADE Topology V1, (c) Matra-Datavision
Locations 7
1
             -1               0               0 12.4999999999993 
              0              -1               0 -6.15000000004925 
              0               0               1               0 
1
              1               0               0 610.999996189056 
              0               1               0 613.499938200589 
              0               0               1             715 
1
              1               0               0               0 
              0               1               0               0 
              0               0               1               0 
2  1 1 2 1 3 1 0
1
              1              -0               0              -0 
              0               1               0 4.44089209850063e-16 
              0               0               1               0 
1
              1               0               0               0 
              0               1               0               0 
              0               0               1 10.0000000000008 
2  5 1 6 1 0
Curve2ds 0
Curves 8
1 -4.9999999999999254 -1.3499999999507846 0 0 0 1 
1 4.9999999999999254 -1.3499999999507846 0 0 0 1 
1 -4.9999999999999254 -1.349999999950785 0 1 0 0 
1 4.9999999999999254 1.3499999999507855 0 0 0 1 
1 4.9999999999999254 -1.349999999950785 0 0 1 0 
1 -4.9999999999999254 1.3499999999507855 0 0 0 1 
1 4.9999999999999254 1.349999999950785 0 -1 0 0 
1 -4.9999999999999254 1.349999999950785 0 0 -1 0 
Polygon3D 0
PolygonOnTriangulations 0
Surfaces 5
1 -4.9999999999999254 -1.3499999999507846 0 0 1 0 1 0 0 0 0 -1 
1 4.9999999999999254 -1.3499999999507846 0 -1 0 0 0 1 0 0 0 -1 
1 4.9999999999999254 1.3499999999507855 0 0 -1 0 -1 0 0 -0 -0 -1 
1 -4.9999999999999254 1.3499999999507855 0 1 0 -0 0 -1 0 0 -0 -1 
1 0 4.4408920985006262e-16 0 0 0 1 1 0 -0 -0 1 0 
Triangulations 0

TShapes 24
Ve
0.00099
-4.99999999999993 -1.34999999995079 0
0 0

0101101
*
Ed
 0.00099 1 1 0
1  1 0 0 10.0000000000008
0

0101000
+24 5 -24 7 *
Ve
0.00099
4.99999999999993 -1.34999999995079 0
0 0

0101101
*
Ed
 0.00099 1 1 0
1  2 0 0 10.0000000000008
0

0101000
+22 5 -22 7 *
Ed
 0.00099 1 1 0
1  3 0 0 9.99999999999985
0

0101000
+24 0 -22 0 *
Wi

0101100
+23 0 -21 0 -20 5 +20 7 *
Fa
0  0.00099 1 0

0101000
+19 0 *
Ve
0.00099
4.99999999999993 1.34999999995079 0
0 0

0101101
*
Ed
 0.00099 1 1 0
1  4 0 0 10.0000000000008
0

0101000
+17 5 -17 7 *
Ed
 0.00099 1 1 0
1  5 0 0 2.69999999990157
0

0101000
+22 0 -17 0 *
Wi

0101100
+21 0 -16 0 -15 5 +15 7 *
Fa
0  0.00099 2 0

0101000
+14 0 *
Ve
0.00099
-4.99999999999993 1.34999999995079 0
0 0

0101101
*
Ed
 0.00099 1 1 0
1  6 0 0 10.0000000000008
0

0101000
+12 5 -12 7 *
Ed
 0.00099 1 1 0
1  7 0 0 9.99999999999985
0

0101000
+17 0 -12 0 *
Wi

0101100
+16 0 -11 0 -10 5 +10 7 *
Fa
0  0.00099 3 0

0101000
+9 0 *
Ed
 0.00099 1 1 0
1  8 0 0 2.69999999990157
0

0101000
+12 0 -24 0 *
Wi

0101100
+11 0 -23 0 -7 5 +7 7 *
Fa
0  0.00099 4 0

0101000
+6 0 *
Wi

0101100
+20 0 +15 0 +10 0 +7 0 *
Fa
0  0.00099 5 0

0111000
+4 5 *
Sh

0101100
+18 0 +13 0 +8 0 +5 0 +3 0 -3 6 *
So

1100000
-2 0 *

+1 4 