DBRep_DrawableShape

CASCADE Topology V3, (c) Open Cascade
Locations 7
1
              0               1               0 -28.1144692522749 
-0.0101004948353616               0 -0.999948988700964 22.3137886954107 
-0.999948988700964               0 0.0101004948353616 23.1667134270241 
1
              1               0               0 -1.77635683940025e-15 
              0               1               0               0 
              0               0               1               0 
2  2 1 1 1 0
2  1 -1 0
1
              1               0               0               0 
              0               1               0               0 
              0               0               1 48.4999489216889 
2  2 1 5 1 1 1 0
2  1 -1 5 -1 2 -1 0
Curve2ds 6
8 -0.11487986001119802 1.21852149185723
1 0.11487399984030577 -48.498788578256125 0.99994898870096416 0.010100494835361578 
8 -0.11487986001119802 1.21852149185723
1 9.8333333333333854 -0.37499362358762056 0 -1 
8 4.9166666666666927 5.4166666666667069
1 -4.9166666666666927 -48.486480908220848 1 0 
8 4.9166666666666927 5.4166666666667069
1 4.9166666666666927 -1.5935151154448484 1 0 
8 -0.5518888327232524 0.78151251914517561
1 0.55186068015697165 -48.492055258525468 0.99994898870096416 -0.010100494835361578 
8 -0.5518888327232524 0.78151251914517561
1 10.3333333333334 -1.0416262827215981 0 1 
Curves 11
1 -0.66666666666666641 -0.25000000000000711 0 1 0 0 
1 0.66666666666666463 -0.25000000000000711 0 0 0 1 
1 -28.364469252274908 -26.17695251765695 24.208339709745704 0 0 -1 
1 -0.66666666666666818 -0.25000000000000711 0 0 0 1 
1 0.66666666666666641 -0.25000000000000711 0 0 1 0 
1 0.66666666666666641 0.25000000000000711 0 -1 0 0 
1 -0.66666666666666641 0.25000000000000711 0 0 -1 0 
1 0.66666666666666463 0.25000000000000711 0 0 0 1 
1 -33.281135918941601 -26.176952517656954 22.989818217888477 1 0 0 
1 -27.864469252274894 -26.17695251765695 23.541707050611727 0 -0 1 
1 -0.66666666666666818 0.25000000000000711 0 0 0 1 
Polygon3D 0
PolygonOnTriangulations 0
Surfaces 6
1 -0.66666666666666818 -0.25000000000000711 0 0 1 0 1 0 0 0 0 -1 
1 -38.197802585608294 -26.17695251765695 24.583333333333325 -0 -1 -0 1 -0 0 -0 0 1 
1 0 0 0 0 0 1 1 0 -0 -0 1 0 
1 0.66666666666666463 -0.25000000000000711 0 -1 0 0 0 1 0 0 0 -1 
1 0.66666666666666463 0.25000000000000711 0 0 -1 0 -1 0 0 -0 -0 -1 
1 -0.66666666666666818 0.25000000000000711 0 1 0 -0 0 -1 0 0 -0 -1 
Triangulations 0

TShapes 34
Ve
1e-07
-0.666666666666666 -0.250000000000007 0
0 0

0101101
*
Ve
1e-07
0.666666666666666 -0.250000000000007 0
0 0

0101101
*
Ed
 1e-07 1 1 0
1  1 0 0 1.33333333333333
0

0101000
+34 0 -33 0 *
Ve
0.000100050000005024
-28.3644692522749 -26.176952517657 22.9898182178885
0 0

0101101
*
Ed
 1e-07 1 1 0
1  2 0 0 48.4864809082208
0

0101000
+33 2 -31 4 *
Ve
0.000100050113443715
-28.3644692522749 -26.176952517657 24.3232195697569
0 0

0101101
*
Ed
 0.00010005 1 1 0
1  3 0 -0.114879860011198 1.21852149185723
2  1 1 1 -0.114879860011198 1.21852149185723
2  2 2 0 -0.114879860011198 1.21852149185723
0

0101000
+29 0 -31 0 *
Ed
 1e-07 1 1 0
1  4 0 0 48.4999489216889
0

0101000
+34 2 -29 4 *
Wi

0101100
-32 3 -30 1 +28 0 +27 1 *
Fa
0  1e-07 1 1

0101000
+26 0 *
Ve
1e-07
0.666666666666666 0.250000000000007 0
0 0

0101101
*
Ed
 1e-07 1 1 0
1  5 0 0 0.500000000000014
0

0101000
+33 0 -24 0 *
Ve
1e-07
-0.666666666666666 0.250000000000007 0
0 0

0101101
*
Ed
 1e-07 1 1 0
1  6 0 0 1.33333333333333
0

0101000
+24 0 -22 0 *
Ed
 1e-07 1 1 0
1  7 0 0 0.500000000000014
0

0101000
+22 0 -34 0 *
Wi

0111100
+32 0 +23 0 +21 0 +20 0 *
Fa
0  1e-07 3 0

0101000
+19 2 *
Ve
0.000100050000005024
-27.8644692522749 -26.176952517657 22.9898182178885
0 0

0101101
*
Ed
 1e-07 1 1 0
1  8 0 0 48.4864809082208
0

0101000
+24 2 -17 4 *
Ed
 0.00010005 1 1 0
1  9 0 4.91666666666669 5.41666666666671
2  3 4 1 4.91666666666669 5.41666666666671
2  4 2 0 4.91666666666669 5.41666666666671
0

0101000
+31 0 -17 0 *
Wi

0101100
-23 3 -16 1 +15 0 +30 1 *
Fa
0  1e-07 4 1

0101000
+14 0 *
Ve
0.000100050113443715
-27.8644692522749 -26.176952517657 24.3232195697569
0 0

0101101
*
Ed
 0.00010005 1 1 0
1  10 0 -0.551888832723252 0.781512519145176
2  5 5 1 -0.551888832723252 0.781512519145176
2  6 2 0 -0.551888832723252 0.781512519145176
0

0101000
+17 0 -12 0 *
Ed
 0.000100000000042633 1 1 0
1  7 0 0 0.500000000000014
0

0101000
+12 7 -29 7 *
Wi

0101100
+11 0 +15 0 +28 0 +10 6 *
Fa
0  0.0001 2 0

0101000
+9 0 *
Ed
 1e-07 1 1 0
1  11 0 0 48.4999489216889
0

0101000
+22 2 -12 4 *
Wi

0101100
+7 1 -27 1 -20 3 +10 6 *
Fa
0  1e-07 6 1

0101000
+6 0 *
Wi

0101100
-21 3 -7 1 +11 0 +16 1 *
Fa
0  1e-07 5 1

0101000
+4 0 *
Sh

0101100
-25 0 -18 1 -13 0 +8 0 -5 0 -3 0 *
So

0100000
+2 0 *

+1 0 