DBRep_DrawableShape

CASCADE Topology V1, (c) Matra-Datavision
Locations 5
1
              1               0               0               0 
              0               1               0               0 
              0               0               1               0 
2  1 -1 0
1
              1               0               0               0 
              0               1               0               0 
              0               0               1               5 
2  3 -1 0
2  1 -1 3 -1 0
Curve2ds 8
1 0 0 0 -1 
1 0.0038192574791503721 0 0 -1 
1 0 0 1 0 
1 0 -5 1 0 
1 0 0 0 -1 
1 0.0038176201400871622 0 0 -1 
1 0 0 1 0 
1 0 -5 1 0 
Curves 12
1 -205.253520847 0.63647669552899999 7 0 0 1 
1 -217.64389200974972 22.688276668717297 7 0 0 1 
2 -5985.2864977435665 -3232.5169354324912 7 0 -0 1 0.87274183212116951 0.48818203005209487 0 -0.48818203005209487 0.87274183212116951 0 6622.8439661800003
2 -5985.2864977435665 -3232.5169354324912 7 0 -0 1 0.87274183212116951 0.48818203005209487 0 -0.48818203005209487 0.87274183212116951 0 6622.8439661800003
1 -205.50930714102677 0.49971499726147744 7 0 0 1 
1 -205.50930714102677 0.49971499726147744 7 0.88186238330438804 0.47150687896647359 0 
1 -205.50930714102677 0.49971499726147744 7 0.88186238330438804 0.47150687896647359 0 
1 -217.89400213220327 22.541410669978095 7 0 0 1 
1 -217.64389200974972 22.688276668717297 7 -0.86232210222373884 -0.50636014062762846 0 
1 -217.64389200974972 22.688276668717297 7 -0.86232210222373884 -0.50636014062762846 0 
2 -5985.3690426540952 -3232.5633154140523 7 0 -0 1 0.87274141243560521 0.48818278033939816 0 -0.48818278033939816 0.87274141243560521 0 6622.6486484500001
2 -5985.3690426540952 -3232.5633154140523 7 0 -0 1 0.87274141243560521 0.48818278033939816 0 -0.48818278033939816 0.87274141243560521 0 6622.6486484500001
Polygon3D 0
PolygonOnTriangulations 0
Surfaces 6
2 -5985.2864977435665 -3232.5169354324912 7 0 0 -1 0.87274183212116951 0.48818203005209487 0 -0.48818203005209487 0.87274183212116951 0 6622.8439661800003
1 -205.50930714102677 0.49971499726147744 7 -0.47150687896647359 0.88186238330438804 0 0.88186238330438804 0.47150687896647359 0 0 0 -1 
2 -5985.3690426540952 -3232.5633154140523 7 0 0 -1 0.87274141243560521 0.48818278033939816 0 -0.48818278033939816 0.87274141243560521 0 6622.6486484500001
1 -217.64389200974972 22.688276668717297 7 0.50636014062762846 -0.86232210222373884 0 -0.86232210222373884 -0.50636014062762846 0 0 -0 -1 
1 -211.56898553676186 11.594947756984677 7 0 0 1 -0.48818203005209487 0.87274183212116951 0 -0.87274183212116951 -0.48818203005209487 0 
1 -211.56898553676186 11.594947756984677 7 0 0 1 -0.48818203005209487 0.87274183212116951 0 -0.87274183212116951 -0.48818203005209487 0 
Triangulations 0

TShapes 34
Ve
1e-005
-205.253520847 0.636476695529 7
0 0

0101101
*
Ve
1e-005
-205.253520847 0.636476695529 12
0 0

0101101
*
Ed
 1e-005 1 1 0
1  1 0 0 5
2  1 1 0 0 5
0

0101000
+34 2 -33 2 *
Ve
1e-005
-217.64389200975 22.6882766687173 7
0 0

0101101
*
Ve
1e-005
-217.64389200975 22.6882766687173 12
0 0

0101101
*
Ed
 1e-005 1 1 0
1  2 0 0 5
2  2 1 0 0 5
0

0101000
+31 2 -30 2 *
Ed
 1e-005 1 1 0
1  3 0 0 0.00381925747915037
2  3 1 0 0 0.00381925747915037
0

0101000
+34 2 -31 2 *
Ed
 1e-005 1 1 0
1  4 0 0 0.00381925747915037
2  4 1 4 0 0.00381925747915037
0

0101000
+33 5 -30 5 *
Wi

0101100
+32 0 -29 0 -28 0 +27 3 *
Fa
0  1e-005 1 0

0101000
+26 0 *
Ve
1e-005
-205.509307141027 0.499714997261477 7
0 0

0101101
*
Ve
1e-005
-205.509307141027 0.499714997261477 12
0 0

0101101
*
Ed
 1e-005 1 1 0
1  5 0 0 5
2  5 3 0 0 5
0

0101000
+24 2 -23 2 *
Ed
 1e-005 1 1 0
1  6 0 0 0.2900523923793
0

0101000
+24 2 -34 2 *
Ed
 1e-005 1 1 0
1  7 0 0 0.2900523923793
0

0101000
+23 5 -33 5 *
Wi

0101100
+22 0 -32 0 -21 0 +20 3 *
Fa
0  1e-005 2 0

0101000
+19 0 *
Ve
1e-005
-217.894002132203 22.5414106699781 7
0 0

0101101
*
Ve
1e-005
-217.894002132203 22.5414106699781 12
0 0

0101101
*
Ed
 1e-005 1 1 0
1  8 0 0 5
2  6 3 0 0 5
0

0101000
+17 2 -16 2 *
Ed
 1e-005 1 1 0
1  9 0 0 0.290042574356588
0

0101000
+31 2 -17 2 *
Ed
 1e-005 1 1 0
1  10 0 0 0.290042574356588
0

0101000
+30 5 -16 5 *
Wi

0101100
+29 0 -15 0 -14 0 +13 3 *
Fa
0  1e-005 4 0

0101000
+12 0 *
Ed
 1e-005 1 1 0
1  11 0 0 0.00381762014008716
2  7 3 0 0 0.00381762014008716
0

0101000
+24 2 -17 2 *
Ed
 1e-005 1 1 0
1  12 0 0 0.00381762014008716
2  8 3 4 0 0.00381762014008716
0

0101000
+23 5 -16 5 *
Wi

0101100
+22 0 -15 0 -10 0 +9 3 *
Fa
0  1e-005 3 0

0101000
+8 0 *
Wi

0101100
+28 0 +21 0 +14 0 -10 0 *
Fa
0  1e-005 5 0

0111000
+6 0 *
Wi

0101100
+27 0 +20 0 +13 0 -9 0 *
Fa
0  1e-005 6 0

0111000
+4 0 *
Sh

0101100
+25 0 +18 0 +11 0 -7 0 +5 0 -3 3 *
So

1100000
-2 0 *

+1 1 
